<svg width="33.000000" height="33.000000" viewBox="0 0 33 33" fill="none" xmlns="http://www.w3.org/2000/svg" xmlns:xlink="http://www.w3.org/1999/xlink">
	<desc>
			Created with Pixso.
	</desc>
	<defs>
		<clipPath id="clip1_389">
			<rect rx="-0.500000" width="32.000000" height="32.000000" transform="translate(0.500000 0.500000)" fill="white" fill-opacity="0"/>
		</clipPath>
	</defs>
	<rect rx="-0.500000" width="32.000000" height="32.000000" transform="translate(0.500000 0.500000)" fill="#FFFFFF" fill-opacity="0"/>
	<g clip-path="url(#clip1_389)">
		<path d="M11 6.87C11 4.59 9.15 2.75 6.87 2.75C4.59 2.75 2.75 4.59 2.75 6.87C2.75 9.15 4.59 11 6.87 11C8.09 11 9.19 10.46 9.94 9.62C10.6 8.89 11 7.93 11 6.87ZM9.94 9.62L27.5 24.75" stroke="#269BC7" stroke-opacity="1.000000" stroke-width="1.500000" stroke-linejoin="round" stroke-linecap="round"/>
		<path d="M11 26.12C11 28.4 9.15 30.25 6.87 30.25C4.59 30.25 2.75 28.4 2.75 26.12C2.75 23.84 4.59 22 6.87 22C8.09 22 9.19 22.53 9.94 23.37C10.6 24.1 11 25.06 11 26.12ZM9.94 23.37L27.5 8.25" stroke="#269BC7" stroke-opacity="1.000000" stroke-width="1.500000" stroke-linejoin="round" stroke-linecap="round"/>
	</g>
</svg>
