<svg width="33.000000" height="33.000000" viewBox="0 0 33 33" fill="none" xmlns="http://www.w3.org/2000/svg" xmlns:xlink="http://www.w3.org/1999/xlink">
	<desc>
			Created with Pixso.
	</desc>
	<defs>
		<clipPath id="clip1_386">
			<rect rx="-0.500000" width="32.000000" height="32.000000" transform="translate(0.500000 0.500000)" fill="white" fill-opacity="0"/>
		</clipPath>
	</defs>
	<rect rx="-0.500000" width="32.000000" height="32.000000" transform="translate(0.500000 0.500000)" fill="#FFFFFF" fill-opacity="0"/>
	<g clip-path="url(#clip1_386)">
		<path d="M28.87 22C28.87 25.79 25.79 28.87 22 28.87L11 28.87C7.2 28.87 4.12 25.79 4.12 22L4.12 11C4.12 7.2 7.2 4.12 11 4.12L22 4.12C25.79 4.12 28.87 7.2 28.87 11L28.87 22Z" stroke="#269BC7" stroke-opacity="1.000000" stroke-width="1.500000" stroke-linejoin="round"/>
		<path d="M13.88 24.75C13.43 24.75 13.06 24.38 13.06 23.92L13.06 20.76C13.06 20.3 12.69 19.93 12.23 19.93L9.07 19.93C8.61 19.93 8.25 19.56 8.25 19.11L8.25 13.88C8.25 13.43 8.61 13.06 9.07 13.06L12.23 13.06C12.69 13.06 13.06 12.69 13.06 12.23L13.06 9.07C13.06 8.61 13.43 8.25 13.88 8.25L19.11 8.25C19.56 8.25 19.93 8.61 19.93 9.07L19.93 12.23C19.93 12.69 20.3 13.06 20.76 13.06L23.92 13.06C24.38 13.06 24.75 13.43 24.75 13.88L24.75 19.11C24.75 19.56 24.38 19.93 23.92 19.93L20.76 19.93C20.3 19.93 19.93 20.3 19.93 20.76L19.93 23.92C19.93 24.38 19.56 24.75 19.11 24.75L13.88 24.75Z" stroke="#269BC7" stroke-opacity="1.000000" stroke-width="1.500000"/>
	</g>
</svg>
