<svg width="43.000000" height="43.000000" viewBox="0 0 43 43" fill="none" xmlns="http://www.w3.org/2000/svg" xmlns:xlink="http://www.w3.org/1999/xlink">
	<desc>
			Created with Pixso.
	</desc>
	<defs/>
	<path d="M18.94 2.97C18.01 4.06 16.48 4.44 15.15 3.91C13.23 3.15 11.09 4.27 10.63 6.28C10.31 7.68 9.13 8.72 7.7 8.87C5.65 9.09 4.28 11.08 4.8 13.07C5.17 14.46 4.61 15.93 3.41 16.73C1.7 17.87 1.41 20.28 2.8 21.8C3.77 22.86 3.96 24.42 3.27 25.68C2.28 27.49 3.14 29.75 5.08 30.45C6.43 30.94 7.32 32.23 7.3 33.67C7.27 35.73 9.08 37.33 11.12 37.05C12.55 36.86 13.94 37.59 14.58 38.87C15.51 40.71 17.86 41.29 19.54 40.09C20.71 39.26 22.28 39.26 23.45 40.09C25.13 41.29 27.48 40.71 28.41 38.87C29.05 37.59 30.44 36.86 31.87 37.05C33.91 37.33 35.72 35.73 35.69 33.67C35.67 32.23 36.56 30.94 37.91 30.45C39.85 29.75 40.71 27.49 39.72 25.68C39.03 24.42 39.22 22.86 40.19 21.8C41.58 20.28 41.29 17.87 39.58 16.73C38.38 15.93 37.82 14.46 38.19 13.07C38.71 11.08 37.34 9.09 35.29 8.87C33.86 8.72 32.68 7.68 32.36 6.28C31.9 4.27 29.76 3.15 27.84 3.91C26.51 4.44 24.98 4.06 24.05 2.97C22.71 1.41 20.28 1.41 18.94 2.97Z" fill="#6076DF" fill-opacity="1.000000" fill-rule="evenodd"/>
	<path d="M16.46 21.18Q17.04 21.51 17.82 21.51Q18.61 21.51 19.19 21.17Q19.47 21.02 19.7 20.79Q19.82 20.67 19.92 20.53Q20.43 19.85 20.43 18.79Q20.43 17.93 20.09 17.32Q19.89 16.94 19.59 16.67Q19.39 16.5 19.16 16.38Q19.08 16.34 19.01 16.3Q18.47 16.06 17.82 16.06Q17.17 16.06 16.64 16.3Q16.56 16.34 16.49 16.38Q16.26 16.5 16.07 16.66Q15.76 16.93 15.56 17.32Q15.22 17.93 15.22 18.79Q15.22 19.85 15.73 20.53Q15.83 20.67 15.95 20.79Q16.18 21.02 16.46 21.18ZM25.94 16.2L23.58 16.2L16.89 26L19.25 26L25.94 16.2ZM17.96 19.98Q17.89 20 17.82 20Q17.76 20 17.7 19.99Q17.51 19.93 17.38 19.72Q17.21 19.43 17.21 18.79Q17.21 18.14 17.38 17.85Q17.51 17.64 17.7 17.58Q17.76 17.57 17.82 17.57Q17.89 17.57 17.96 17.59Q18.14 17.64 18.26 17.85Q18.44 18.14 18.44 18.79Q18.44 19.43 18.26 19.72Q18.14 19.93 17.96 19.98ZM23.63 25.8Q24.22 26.14 25.01 26.14Q25.79 26.14 26.38 25.79Q26.65 25.64 26.88 25.41Q27 25.29 27.09 25.16Q27.61 24.48 27.61 23.4Q27.61 22.55 27.27 21.93Q27.07 21.56 26.77 21.29Q26.57 21.12 26.34 21Q26.27 20.96 26.19 20.92Q25.65 20.68 25.01 20.68Q24.37 20.68 23.84 20.91Q23.75 20.95 23.67 21Q23.43 21.12 23.24 21.29Q22.94 21.56 22.74 21.93Q22.4 22.55 22.4 23.4Q22.4 24.48 22.92 25.16Q23.01 25.29 23.13 25.41Q23.36 25.64 23.63 25.8ZM25.14 24.61Q25.07 24.62 25.01 24.62Q24.94 24.62 24.87 24.6Q24.69 24.55 24.56 24.34Q24.39 24.05 24.39 23.4Q24.39 22.76 24.56 22.47Q24.69 22.26 24.87 22.21Q24.94 22.19 25.01 22.19Q25.07 22.19 25.14 22.21Q25.31 22.26 25.44 22.47Q25.62 22.76 25.62 23.4Q25.62 24.05 25.44 24.34Q25.31 24.55 25.14 24.61Z" fill="#FFFFFF" fill-opacity="1.000000" fill-rule="evenodd"/>
</svg>
