<svg width="119.494141" height="119.590210" viewBox="0 0 119.494 119.59" fill="none" xmlns="http://www.w3.org/2000/svg" xmlns:xlink="http://www.w3.org/1999/xlink">
	<desc>
			Created with Pixso.
	</desc>
	<defs/>
	<path id="Ellipse 81" d="M2.74 41.43Q9.3 21.09 27.3 9.53Q45.29 -2.03 66.55 0.43Q87.81 2.89 102.68 18.26Q117.55 33.63 119.27 54.93Q121 76.23 108.81 93.8Q96.61 111.36 76.03 117.2Q55.45 123.05 35.82 114.54Q16.19 106.02 6.43 87L10.4 84.96Q19.43 102.56 37.6 110.45Q55.76 118.33 74.81 112.92Q93.86 107.51 105.15 91.25Q116.43 75 114.83 55.29Q113.23 35.58 99.47 21.36Q85.71 7.13 66.04 4.85Q46.36 2.57 29.71 13.28Q13.05 23.98 6.98 42.8L2.74 41.43ZM6.96 42.78L6.98 42.8C6.59 43.99 5.36 44.62 4.17 44.24C2.98 43.85 2.35 42.62 2.74 41.43L2.76 41.42L6.96 42.78ZM6.46 87.01L6.43 87C5.86 85.89 6.29 84.57 7.4 84C8.51 83.43 9.83 83.85 10.4 84.96L10.39 84.99L6.46 87.01Z" fill="#F2F6FB" fill-opacity="1.000000" fill-rule="evenodd"/>
	<path id="Ellipse 68" d="M92.19 109.99Q74.19 121.55 52.93 119.09Q31.68 116.62 16.81 101.26Q1.94 85.88 0.21 64.58Q-1.52 43.28 10.68 25.72Q22.87 8.16 43.46 2.31L44.67 6.6Q25.62 12.01 14.34 28.26Q3.05 44.51 4.65 64.22Q6.25 83.93 20.01 98.16Q33.77 112.38 53.45 114.66Q73.12 116.94 89.78 106.24L92.19 109.99ZM89.77 106.26L89.78 106.24C90.83 105.56 92.18 105.86 92.86 106.91C93.53 107.96 93.24 109.31 92.19 109.99L92.16 109.98L89.77 106.26ZM43.44 2.33L43.46 2.31C44.66 1.97 45.87 2.64 46.21 3.84C46.55 5.04 45.87 6.25 44.67 6.6L44.65 6.58L43.44 2.33Z" fill="#FF84A0" fill-opacity="1.000000" fill-rule="evenodd"/>
</svg>
