<svg width="116.020508" height="119.656982" viewBox="0 0 116.021 119.657" fill="none" xmlns="http://www.w3.org/2000/svg" xmlns:xlink="http://www.w3.org/1999/xlink">
	<desc>
			Created with Pixso.
	</desc>
	<defs/>
	<path id="Ellipse 82" d="M0.11 41.5Q6.62 21.16 24.49 9.6Q42.35 -1.97 63.46 0.49Q84.57 2.96 99.33 18.33Q114.09 33.7 115.8 55Q117.52 76.3 105.42 93.86Q93.31 111.42 72.87 117.27Q52.44 123.12 32.95 114.6Q13.46 106.08 3.78 87.06L7.75 85.04Q16.71 102.64 34.73 110.52Q52.75 118.4 71.65 112.99Q90.55 107.58 101.75 91.33Q112.95 75.07 111.36 55.36Q109.77 35.64 96.12 21.42Q82.46 7.2 62.95 4.92Q43.43 2.64 26.91 13.34Q10.38 24.04 4.35 42.86L0.11 41.5ZM4.34 42.84L4.35 42.86C3.97 44.05 2.74 44.69 1.55 44.3C0.36 43.92 -0.28 42.69 0.11 41.5L0.13 41.49L4.34 42.84ZM3.8 87.07L3.78 87.06C3.21 85.95 3.64 84.63 4.75 84.06C5.86 83.5 7.18 83.93 7.75 85.04L7.74 85.06L3.8 87.07Z" fill="#F2F6FB" fill-opacity="1.000000" fill-rule="evenodd"/>
	<path id="Ellipse 69" d="M39.66 2.38Q60.1 -3.47 79.59 5.05Q99.07 13.57 108.76 32.59L104.79 34.61Q95.83 17.01 77.8 9.13Q59.79 1.25 40.89 6.66L39.66 2.38ZM40.9 6.64L40.89 6.66C39.69 7 38.48 6.33 38.13 5.13C37.79 3.93 38.46 2.72 39.66 2.38L39.69 2.39L40.9 6.64ZM108.73 32.58L108.76 32.59C109.33 33.7 108.9 35.02 107.79 35.58C106.68 36.15 105.36 35.72 104.79 34.61L104.8 34.58L108.73 32.58Z" fill="#FF84A0" fill-opacity="1.000000" fill-rule="evenodd"/>
</svg>
