<svg width="33.000000" height="33.000000" viewBox="0 0 33 33" fill="none" xmlns="http://www.w3.org/2000/svg" xmlns:xlink="http://www.w3.org/1999/xlink">
	<desc>
			Created with Pixso.
	</desc>
	<defs>
		<clipPath id="clip25_44">
			<rect rx="-0.500000" width="32.000000" height="32.000000" transform="translate(0.500000 0.500000)" fill="white" fill-opacity="0"/>
		</clipPath>
	</defs>
	<g clip-path="url(#clip25_44)">
		<path d="M12.37 16.49L15.12 19.24L20.62 13.74M27.5 16.49L27.5 11.29C27.5 10.19 27.5 9.64 27.32 9.17C27.16 8.76 26.9 8.38 26.56 8.09C26.18 7.75 25.67 7.56 24.64 7.17L17.27 4.41C16.98 4.3 16.84 4.25 16.69 4.23C16.56 4.21 16.43 4.21 16.3 4.23C16.15 4.25 16.01 4.3 15.72 4.41L8.35 7.17C7.32 7.56 6.81 7.75 6.43 8.09C6.09 8.38 5.83 8.76 5.67 9.17C5.5 9.64 5.5 10.19 5.5 11.29L5.5 16.49C5.5 22.63 13 27.07 15.61 28.43C15.9 28.58 16.04 28.65 16.23 28.69C16.38 28.72 16.61 28.72 16.76 28.69C16.95 28.65 17.09 28.58 17.38 28.43C19.99 27.07 27.5 22.63 27.5 16.49Z" stroke="#269BC7" stroke-opacity="1.000000" stroke-width="2.000000" stroke-linejoin="round" stroke-linecap="round"/>
	</g>
</svg>
