<svg width="33.000000" height="33.000000" viewBox="0 0 33 33" fill="none" xmlns="http://www.w3.org/2000/svg" xmlns:xlink="http://www.w3.org/1999/xlink">
	<desc>
			Created with Pixso.
	</desc>
	<defs>
		<clipPath id="clip1_394">
			<rect rx="-0.500000" width="32.000000" height="32.000000" transform="translate(0.500000 0.500000)" fill="white" fill-opacity="0"/>
		</clipPath>
	</defs>
	<rect rx="-0.500000" width="32.000000" height="32.000000" transform="translate(0.500000 0.500000)" fill="#FFFFFF" fill-opacity="0"/>
	<g clip-path="url(#clip1_394)">
		<path d="M2.75 16.5C2.75 8.9 8.9 2.75 16.5 2.75C24.09 2.75 30.25 8.9 30.25 16.5C30.25 24.09 24.09 30.25 16.5 30.25C8.9 30.25 2.75 24.09 2.75 16.5Z" stroke="#269BC7" stroke-opacity="1.000000" stroke-width="1.500000" stroke-linejoin="round"/>
		<path d="M22.68 19.93C22.68 19.93 20.62 22.68 16.5 22.68C12.37 22.68 10.31 19.93 10.31 19.93" stroke="#269BC7" stroke-opacity="1.000000" stroke-width="1.500000" stroke-linejoin="round" stroke-linecap="round"/>
		<path d="M21.31 12.37C20.93 12.37 20.62 12.06 20.62 11.68C20.62 11.3 20.93 11 21.31 11C21.69 11 22 11.3 22 11.68C22 12.06 21.69 12.37 21.31 12.37Z" fill="#269BC7" fill-opacity="1.000000" fill-rule="nonzero"/>
		<path d="M20.62 11.68C20.62 11.3 20.93 11 21.31 11C21.69 11 22 11.3 22 11.68C22 12.06 21.69 12.37 21.31 12.37C20.93 12.37 20.62 12.06 20.62 11.68Z" stroke="#269BC7" stroke-opacity="1.000000" stroke-width="1.500000" stroke-linejoin="round"/>
		<path d="M11.68 12.37C11.3 12.37 11 12.06 11 11.68C11 11.3 11.3 11 11.68 11C12.06 11 12.37 11.3 12.37 11.68C12.37 12.06 12.06 12.37 11.68 12.37Z" fill="#269BC7" fill-opacity="1.000000" fill-rule="nonzero"/>
		<path d="M11 11.68C11 11.3 11.3 11 11.68 11C12.06 11 12.37 11.3 12.37 11.68C12.37 12.06 12.06 12.37 11.68 12.37C11.3 12.37 11 12.06 11 11.68Z" stroke="#269BC7" stroke-opacity="1.000000" stroke-width="1.500000" stroke-linejoin="round"/>
	</g>
</svg>
