<svg width="57.000000" height="17.000000" viewBox="0 0 57 17" fill="none" xmlns="http://www.w3.org/2000/svg" xmlns:xlink="http://www.w3.org/1999/xlink">
	<desc>
			Created with Pixso.
	</desc>
	<defs/>
	<path id="Vector" d="M48.38 0L49.98 0C50.39 0.04 50.8 0.08 51.21 0.13C52.03 0.22 52.84 0.42 53.6 0.72C54.51 1.09 55.37 1.54 56.2 2.07C56.39 2.19 56.57 2.31 56.78 2.45L54.06 5.87C53.97 5.84 53.92 5.82 53.86 5.79C53.18 5.46 52.47 5.19 51.74 4.96C50.63 4.59 49.43 4.51 48.28 4.72C48.02 4.77 47.79 4.87 47.57 5.01C47.47 5.07 47.39 5.15 47.33 5.25C47.28 5.35 47.25 5.47 47.25 5.58C47.25 5.7 47.28 5.81 47.33 5.91C47.39 6.01 47.47 6.09 47.57 6.15C47.75 6.27 47.94 6.35 48.14 6.4C48.85 6.56 49.56 6.72 50.27 6.85C51.43 7.05 52.57 7.32 53.69 7.67C54.65 7.97 55.49 8.52 56.13 9.27C56.53 9.74 56.8 10.29 56.92 10.88C57.04 11.47 57.01 12.08 56.83 12.66C56.34 14.35 55.21 15.55 53.54 16.26C52.48 16.71 51.34 16.86 50.19 16.94C48.96 17.03 47.72 17.01 46.49 16.9C45.73 16.84 44.97 16.7 44.24 16.48C43.33 16.17 42.47 15.77 41.66 15.27C41.61 15.24 41.56 15.22 41.51 15.2C41.46 15.24 41.42 15.26 41.39 15.29C40.92 15.65 40.4 15.93 39.84 16.12C38.69 16.52 37.48 16.72 36.26 16.71C32.98 16.72 29.69 16.72 26.41 16.72C26.37 16.72 26.33 16.72 26.26 16.71L26.26 7.9C26.22 7.94 26.18 7.98 26.17 8.04C25.72 9.36 25.26 10.67 24.82 11.99C24.34 13.43 23.87 14.87 23.4 16.31C23.36 16.45 23.31 16.58 23.26 16.71L17.14 16.71L14.44 7.75C14.42 7.79 14.4 7.82 14.38 7.86C14.17 8.47 13.95 9.08 13.75 9.7C13.13 11.62 12.51 13.54 11.9 15.46C11.77 15.88 11.63 16.29 11.5 16.7L5.36 16.7C3.63 11.25 1.72 5.87 0 0.41L5.86 0.41C5.88 0.47 5.9 0.52 5.91 0.57C6.14 1.29 6.37 2.02 6.6 2.74C7.19 4.57 7.78 6.41 8.38 8.24C8.51 8.65 8.64 9.05 8.77 9.46C8.78 9.5 8.81 9.54 8.84 9.63C9.88 6.51 10.91 3.44 11.93 0.37L17.18 0.37C17.2 0.42 17.22 0.47 17.24 0.52C17.99 2.87 18.73 5.21 19.47 7.56C19.68 8.21 19.88 8.87 20.09 9.53C20.1 9.59 20.14 9.64 20.18 9.74L23.27 0.36L23.57 0.36C27.41 0.36 31.24 0.36 35.08 0.36C35.76 0.36 36.45 0.39 37.14 0.45C38.07 0.52 38.97 0.76 39.81 1.17C40.66 1.59 41.35 2.26 41.8 3.08C41.83 3.14 41.86 3.2 41.88 3.25C42.07 2.99 42.25 2.73 42.45 2.48C43.08 1.61 43.99 0.95 45.02 0.6C45.82 0.34 46.65 0.16 47.49 0.09L48.38 0ZM42.96 8.86C42.93 8.91 42.92 8.98 42.93 9.04C42.95 9.1 42.98 9.16 43.03 9.19C43.24 9.39 43.42 9.6 43.64 9.78C43.8 9.92 43.92 10.11 43.96 10.32C44.01 10.49 44.07 10.66 44.14 10.83C44.57 11.74 45.34 12.46 46.31 12.83C46.95 13.07 47.63 13.2 48.31 13.21C49.49 13.28 50.67 13.16 51.81 12.85C52.18 12.74 52.56 12.61 52.94 12.48C52.49 12.31 52.04 12.17 51.57 12.04C50.88 11.87 50.25 11.49 49.78 10.96C49.53 10.69 49.3 10.42 49.07 10.12C48.76 9.74 48.38 9.41 47.94 9.16C47.3 8.8 46.59 8.72 45.87 8.7C45.34 8.67 44.81 8.84 44.39 9.16C44.24 9.29 44.22 9.39 44.37 9.53C44.71 9.84 45.05 10.17 45.42 10.45C46.23 11.06 47.19 11.37 48.17 11.63C48.38 11.69 48.6 11.75 48.81 11.82C48.79 11.83 48.77 11.84 48.75 11.84C48.73 11.85 48.71 11.85 48.69 11.84C48.2 11.76 47.71 11.69 47.22 11.59C46.25 11.4 45.35 10.94 44.63 10.27C44.22 9.87 43.8 9.48 43.39 9.08C43.33 9.02 43.27 8.96 43.2 8.92C43.12 8.89 43.04 8.86 42.96 8.86ZM31.87 12.84C31.93 12.84 31.96 12.85 32 12.85C33.14 12.85 34.28 12.85 35.42 12.85C35.67 12.85 35.92 12.82 36.16 12.76C36.44 12.72 36.69 12.58 36.87 12.38C37.06 12.18 37.17 11.93 37.19 11.66C37.21 11.39 37.13 11.12 36.98 10.9C36.82 10.68 36.59 10.51 36.33 10.43C35.99 10.33 35.64 10.28 35.29 10.28C34.24 10.26 33.19 10.28 32.14 10.28L31.87 10.28L31.87 12.84ZM31.87 6.61C31.93 6.61 31.97 6.62 32.02 6.62C32.89 6.62 33.77 6.63 34.64 6.62C34.93 6.62 35.22 6.57 35.49 6.49C35.9 6.36 36.26 6.16 36.35 5.69C36.47 5.03 36.22 4.6 35.58 4.35C35.23 4.23 34.87 4.17 34.5 4.18C33.69 4.18 32.89 4.18 32.08 4.18C32.02 4.18 31.95 4.18 31.87 4.2L31.87 6.61Z" fill="#FFFFFF" fill-opacity="1.000000" fill-rule="nonzero"/>
</svg>
