<svg width="116.865234" height="119.590210" viewBox="0 0 116.865 119.59" fill="none" xmlns="http://www.w3.org/2000/svg" xmlns:xlink="http://www.w3.org/1999/xlink">
	<desc>
			Created with Pixso.
	</desc>
	<defs/>
	<path id="Ellipse 83" d="M0.11 41.43Q6.67 21.09 24.67 9.53Q42.67 -2.03 63.92 0.43Q85.18 2.89 100.05 18.26Q114.92 33.63 116.65 54.93Q118.38 76.23 106.18 93.8Q93.98 111.36 73.4 117.2Q52.82 123.05 33.19 114.54Q13.57 106.02 3.81 87L7.77 84.96Q16.8 102.56 34.97 110.45Q53.13 118.33 72.18 112.92Q91.23 107.51 102.52 91.25Q113.81 75 112.2 55.29Q110.6 35.58 96.84 21.36Q83.08 7.13 63.41 4.85Q43.73 2.57 27.08 13.28Q10.42 23.98 4.35 42.8L0.11 41.43ZM4.33 42.78L4.35 42.8C3.96 43.99 2.73 44.62 1.54 44.24C0.36 43.85 -0.28 42.62 0.11 41.43L0.13 41.42L4.33 42.78ZM3.83 87.01L3.81 87C3.24 85.89 3.66 84.57 4.77 84C5.88 83.43 7.2 83.85 7.77 84.96L7.76 84.99L3.83 87.01Z" fill="#F2F6FB" fill-opacity="1.000000" fill-rule="evenodd"/>
	<path id="Ellipse 80" d="M40.83 2.31Q45.8 0.9 50.94 0.36Q56.04 -0.18 61.16 0.16Q66.28 0.5 71.27 1.71Q76.29 2.92 81.03 4.98L79.26 9.07Q74.87 7.16 70.22 6.04Q65.61 4.92 60.87 4.61Q56.13 4.29 51.4 4.79Q46.65 5.29 42.04 6.6L40.83 2.31ZM42.06 6.57L42.04 6.6C40.84 6.94 39.63 6.26 39.29 5.06C38.95 3.86 39.63 2.65 40.83 2.31L40.85 2.32L42.06 6.57ZM81.01 4.99L81.03 4.98C82.18 5.48 82.69 6.76 82.19 7.91C81.69 9.05 80.4 9.56 79.26 9.07L79.25 9.04L81.01 4.99Z" fill="#FF84A0" fill-opacity="1.000000" fill-rule="evenodd"/>
</svg>
