<svg width="21.765625" height="15.671875" viewBox="0 0 21.7656 15.6719" fill="none" xmlns="http://www.w3.org/2000/svg" xmlns:xlink="http://www.w3.org/1999/xlink">
	<desc>
			Created with Pixso.
	</desc>
	<defs/>
	<path id="“" d="M0 14.96L0.39 15.67L6.65 15.67Q6.98 13.43 7.45 10.78Q7.93 8.12 8.54 5.34Q9.15 2.56 9.73 0L5.51 0Q4.48 2.29 3.42 4.92Q2.37 7.54 1.46 10.1Q0.57 12.67 0 14.96ZM12.04 14.96L12.42 15.67L18.68 15.67Q19.01 13.43 19.48 10.78Q19.96 8.12 20.57 5.34Q21.18 2.56 21.76 0L17.54 0Q16.51 2.29 15.45 4.92Q14.4 7.54 13.5 10.1Q12.6 12.67 12.04 14.96Z" fill="#FFFFFF" fill-opacity="1.000000" fill-rule="evenodd"/>
</svg>
