<svg width="33.000000" height="33.000000" viewBox="0 0 33 33" fill="none" xmlns="http://www.w3.org/2000/svg" xmlns:xlink="http://www.w3.org/1999/xlink">
	<desc>
			Created with Pixso.
	</desc>
	<defs>
		<clipPath id="clip1_823">
			<rect rx="-0.500000" width="32.000000" height="32.000000" transform="translate(0.500000 0.500000)" fill="white" fill-opacity="0"/>
		</clipPath>
	</defs>
	<rect rx="-0.500000" width="32.000000" height="32.000000" transform="translate(0.500000 0.500000)" fill="#FFFFFF" fill-opacity="0"/>
	<g clip-path="url(#clip1_823)">
		<path d="M19.25 23.37L13.75 23.37L10.91 14.3C10.1 11.71 10.62 8.9 12.28 6.76L15.84 2.2C16.18 1.78 16.82 1.78 17.15 2.2L20.71 6.76C22.37 8.9 22.89 11.71 22.08 14.3L19.25 23.37Z" stroke="#269BC7" stroke-opacity="1.000000" stroke-width="1.500000" stroke-linejoin="round"/>
		<path d="M13.75 27.5C13.75 30.25 16.5 31.62 16.5 31.62C16.5 31.62 19.25 30.25 19.25 27.5" stroke="#269BC7" stroke-opacity="1.000000" stroke-width="1.500000" stroke-linejoin="round" stroke-linecap="round"/>
		<path d="M11.68 17.18C6.87 20.62 9.62 26.12 9.62 26.12L13.75 23.37" stroke="#269BC7" stroke-opacity="1.000000" stroke-width="1.500000" stroke-linejoin="round" stroke-linecap="round"/>
		<path d="M21.9 17.18C26.71 20.62 23.96 26.12 23.96 26.12L19.84 23.37" stroke="#269BC7" stroke-opacity="1.000000" stroke-width="1.500000" stroke-linejoin="round" stroke-linecap="round"/>
		<path d="M13.75 12.37C13.75 10.85 14.98 9.62 16.5 9.62C18.01 9.62 19.25 10.85 19.25 12.37C19.25 13.89 18.01 15.12 16.5 15.12C14.98 15.12 13.75 13.89 13.75 12.37Z" stroke="#269BC7" stroke-opacity="1.000000" stroke-width="1.500000" stroke-linejoin="round"/>
	</g>
</svg>
