<svg width="119.494141" height="119.656738" viewBox="0 0 119.494 119.657" fill="none" xmlns="http://www.w3.org/2000/svg" xmlns:xlink="http://www.w3.org/1999/xlink">
	<desc>
			Created with Pixso.
	</desc>
	<defs/>
	<path id="Ellipse 81" d="M2.74 41.5Q9.3 21.16 27.3 9.59Q45.29 -1.97 66.55 0.49Q87.81 2.96 102.68 18.33Q117.55 33.7 119.27 55Q121 76.3 108.81 93.86Q96.61 111.42 76.03 117.27Q55.45 123.12 35.82 114.6Q16.19 106.08 6.43 87.06L10.4 85.03Q19.43 102.63 37.6 110.51Q55.76 118.4 74.81 112.99Q93.86 107.57 105.15 91.32Q116.43 75.07 114.83 55.36Q113.23 35.65 99.47 21.42Q85.71 7.2 66.04 4.92Q46.36 2.64 29.71 13.34Q13.05 24.04 6.98 42.87L2.74 41.5ZM6.96 42.84L6.98 42.87C6.59 44.05 5.36 44.69 4.17 44.3C2.98 43.92 2.35 42.69 2.74 41.5L2.76 41.49L6.96 42.84ZM6.46 87.07L6.43 87.06C5.86 85.96 6.29 84.64 7.4 84.07C8.51 83.5 9.83 83.92 10.4 85.03L10.39 85.06L6.46 87.07Z" fill="#F2F6FB" fill-opacity="1.000000" fill-rule="evenodd"/>
	<path id="Ellipse 68" d="M116.75 78.15Q110.18 98.49 92.19 110.05Q74.19 121.62 52.93 119.15Q31.68 116.69 16.81 101.32Q1.94 85.95 0.21 64.65Q-1.52 43.35 10.68 25.79Q22.87 8.22 43.46 2.38Q64.04 -3.47 83.66 5.05Q103.29 13.56 113.05 32.58L109.09 34.62Q100.05 17.02 81.89 9.13Q63.72 1.25 44.67 6.66Q25.62 12.08 14.34 28.33Q3.05 44.58 4.65 64.29Q6.25 84 20.01 98.22Q33.77 112.45 53.45 114.73Q73.12 117.01 89.78 106.3Q106.43 95.6 112.51 76.78L116.75 78.15ZM112.52 76.8L112.51 76.78C112.89 75.59 114.13 74.96 115.31 75.34C116.5 75.73 117.13 76.96 116.75 78.15L116.72 78.16L112.52 76.8ZM113.02 32.57L113.05 32.58C113.62 33.69 113.2 35.01 112.09 35.58C110.98 36.15 109.66 35.73 109.09 34.62L109.1 34.59L113.02 32.57Z" fill="#FF84A0" fill-opacity="1.000000" fill-rule="evenodd"/>
</svg>
