<svg width="11.505859" height="6.295898" viewBox="0 0 11.5059 6.2959" fill="none" xmlns="http://www.w3.org/2000/svg" xmlns:xlink="http://www.w3.org/1999/xlink">
	
	<defs/>
	<path id="Polygon 7" d="M11.28 1.28L6.63 5.92Q6.45 6.1 6.22 6.2Q5.99 6.29 5.75 6.29Q5.5 6.29 5.28 6.2Q5.04 6.1 4.86 5.92L0.22 1.28L1.28 0.22L5.92 4.86Q5.85 4.79 5.75 4.79Q5.64 4.79 5.57 4.86L10.22 0.22L11.28 1.28ZM0.25 1.28L0.22 1.28C-0.08 0.98 -0.08 0.51 0.22 0.22C0.51 -0.08 0.98 -0.08 1.28 0.22L1.28 0.25L0.25 1.28ZM10.22 0.25L10.22 0.22C10.51 -0.08 10.98 -0.08 11.28 0.22C11.58 0.51 11.58 0.98 11.28 1.28L11.25 1.28L10.22 0.25Z" fill="currentColor" fill-opacity="1.000000" fill-rule="evenodd"/>
</svg>
