<svg width="15.500000" height="14.500000" viewBox="0 0 15.5 14.5" fill="none" xmlns="http://www.w3.org/2000/svg" xmlns:xlink="http://www.w3.org/1999/xlink">
	<desc>
			Created with Pixso.
	</desc>
	<defs/>
	<path d="M12.75 13.75C13.3 13.75 13.75 13.3 13.75 12.75C13.75 12.19 13.3 11.75 12.75 11.75C12.19 11.75 11.75 12.19 11.75 12.75C11.75 13.3 12.19 13.75 12.75 13.75Z" fill="#269BC7" fill-opacity="1.000000" fill-rule="nonzero"/>
	<path d="M13.75 12.75C13.75 12.19 13.3 11.75 12.75 11.75C12.19 11.75 11.75 12.19 11.75 12.75C11.75 13.3 12.19 13.75 12.75 13.75C13.3 13.75 13.75 13.3 13.75 12.75Z" stroke="#FFFFFF" stroke-opacity="1.000000" stroke-width="1.500000" stroke-linejoin="round"/>
	<path d="M5.75 13.75C6.3 13.75 6.75 13.3 6.75 12.75C6.75 12.19 6.3 11.75 5.75 11.75C5.19 11.75 4.75 12.19 4.75 12.75C4.75 13.3 5.19 13.75 5.75 13.75Z" fill="#269BC7" fill-opacity="1.000000" fill-rule="nonzero"/>
	<path d="M6.75 12.75C6.75 12.19 6.3 11.75 5.75 11.75C5.19 11.75 4.75 12.19 4.75 12.75C4.75 13.3 5.19 13.75 5.75 13.75C6.3 13.75 6.75 13.3 6.75 12.75Z" stroke="#FFFFFF" stroke-opacity="1.000000" stroke-width="1.500000" stroke-linejoin="round"/>
	<path d="M2.84 1.98L14.75 1.98L13.34 8.75L4.25 8.75L2.84 1.98C2.73 1.57 2.15 0.75 0.75 0.75" stroke="#FFFFFF" stroke-opacity="1.000000" stroke-width="1.500000" stroke-linejoin="round" stroke-linecap="round"/>
	<path d="M12.75 8.75L4.57 8.75L3.46 8.75C2.34 8.75 1.75 9.33 1.75 10.25C1.75 11.16 2.34 11.75 3.46 11.75L12.43 11.75" stroke="#FFFFFF" stroke-opacity="1.000000" stroke-width="1.500000" stroke-linejoin="round" stroke-linecap="round"/>
</svg>
