<svg width="24.000000" height="24.000000" viewBox="0 0 24 24" fill="none" xmlns="http://www.w3.org/2000/svg" xmlns:xlink="http://www.w3.org/1999/xlink">
	
	<defs>
		<clipPath id="clip14_143">
			<rect id="Close" width="24.000000" height="24.000000" fill="white" fill-opacity="0"/>
		</clipPath>
	</defs>
	<g clip-path="url(#clip14_143)">
		<path id="path" d="M3.49 4.53L3.46 4.53C3.17 4.23 3.17 3.76 3.46 3.46C3.76 3.17 4.23 3.17 4.53 3.46L4.53 3.49L3.49 4.53ZM20.5 19.46L20.53 19.46C20.82 19.76 20.82 20.23 20.53 20.53C20.23 20.82 19.76 20.82 19.46 20.53L19.46 20.5L20.5 19.46Z" fill="currentColor" fill-opacity="0" fill-rule="nonzero"/>
		<path id="path" d="M4 4L20 20" stroke="#808080" stroke-opacity="1.000000" stroke-width="1.500000" stroke-linejoin="round" stroke-linecap="round"/>
		<path id="path" d="M4.53 20.5L4.53 20.53C4.23 20.82 3.76 20.82 3.46 20.53C3.17 20.23 3.17 19.76 3.46 19.46L3.49 19.46L4.53 20.5ZM19.46 3.49L19.46 3.46C19.76 3.17 20.23 3.17 20.53 3.46C20.82 3.76 20.82 4.23 20.53 4.53L20.5 4.53L19.46 3.49Z" fill="currentColor" fill-opacity="0" fill-rule="nonzero"/>
		<path id="path" d="M4 20L20 4" stroke="#808080" stroke-opacity="1.000000" stroke-width="1.500000" stroke-linejoin="round" stroke-linecap="round"/>
	</g>
</svg>
