<svg width="30.000000" height="30.000000" viewBox="0 0 30 30" fill="none" xmlns="http://www.w3.org/2000/svg" xmlns:xlink="http://www.w3.org/1999/xlink">
	<desc>
			Created with Pixso.
	</desc>
	<defs>
		<clipPath id="clip25_52">
			<rect rx="-0.500000" width="29.000000" height="29.000000" transform="translate(0.500000 0.500000)" fill="white" fill-opacity="0"/>
		</clipPath>
	</defs>
	<g clip-path="url(#clip25_52)">
		<path d="M15 22.5C10.85 22.5 7.5 19.14 7.5 15C7.5 10.85 10.85 7.5 15 7.5C19.14 7.5 22.5 10.85 22.5 15C22.5 19.14 19.14 22.5 15 22.5ZM23.12 6.87L20.3 9.69M9.69 20.3L6.87 23.12M21.87 5.62L24.37 8.12M5.62 21.87L8.12 24.37M13.75 3.75L16.25 3.75M13.75 26.25L16.25 26.25M6.87 6.87L9.37 9.37M20.31 20.29L22.5 22.5M8.12 5.62L5.62 8.12M24.37 21.87L21.87 24.37M3.75 15L7.5 15M22.5 15L26.25 15M26.25 13.75L26.25 16.25M3.75 13.75L3.75 16.25M15 3.75L15 7.5M15 22.5L15 26.25M17.5 17.5L17.51 17.5M13.12 15.62C12.43 15.62 11.87 15.06 11.87 14.37C11.87 13.68 12.43 13.12 13.12 13.12C13.81 13.12 14.37 13.68 14.37 14.37C14.37 15.06 13.81 15.62 13.12 15.62ZM13.12 14.37L13.13 14.37" stroke="#868C9E" stroke-opacity="1.000000" stroke-width="2.000000" stroke-linejoin="round" stroke-linecap="round"/>
	</g>
</svg>
