<svg width="21.000000" height="21.000000" viewBox="0 0 21 21" fill="none" xmlns="http://www.w3.org/2000/svg" xmlns:xlink="http://www.w3.org/1999/xlink">
	
	<defs>
		<clipPath id="clip23_91">
			<rect rx="-0.015761" width="20.968479" height="20.968479" transform="translate(0.015761 0.015761)" fill="white" fill-opacity="0"/>
		</clipPath>
	</defs>
	<rect rx="-0.015761" width="20.968479" height="20.968479" transform="translate(0.015761 0.015761)" fill="#FFFFFF" fill-opacity="0"/>
	<g clip-path="url(#clip23_91)">
		<path d="M10.5 1.31C6.87 1.31 3.93 3.95 3.93 7.21C3.93 12.46 10.5 19.68 10.5 19.68C10.5 19.68 17.06 12.46 17.06 7.21C17.06 3.95 14.12 1.31 10.5 1.31ZM10.5 10.5C9.98 10.5 9.47 10.34 9.04 10.05C8.61 9.76 8.27 9.35 8.07 8.87C7.87 8.39 7.82 7.87 7.92 7.36C8.02 6.85 8.27 6.38 8.64 6.01C9.01 5.65 9.47 5.4 9.98 5.3C10.49 5.19 11.02 5.25 11.5 5.44C11.98 5.64 12.39 5.98 12.68 6.41C12.97 6.84 13.12 7.35 13.12 7.87C13.12 8.57 12.84 9.23 12.35 9.73C11.86 10.22 11.19 10.49 10.5 10.5Z" fill="currentColor" fill-opacity="1.000000" fill-rule="nonzero"/>
		<path d="M3.93 7.21C3.93 12.46 10.5 19.68 10.5 19.68C10.5 19.68 17.06 12.46 17.06 7.21C17.06 3.95 14.12 1.31 10.5 1.31C6.87 1.31 3.93 3.95 3.93 7.21ZM9.04 10.05C8.61 9.76 8.27 9.35 8.07 8.87C7.87 8.39 7.82 7.87 7.92 7.36C8.02 6.85 8.27 6.38 8.64 6.01C9.01 5.65 9.47 5.4 9.98 5.3C10.49 5.19 11.02 5.25 11.5 5.44C11.98 5.64 12.39 5.98 12.68 6.41C12.97 6.84 13.12 7.35 13.12 7.87C13.12 8.57 12.84 9.23 12.35 9.73C11.86 10.22 11.19 10.49 10.5 10.5C9.98 10.5 9.47 10.34 9.04 10.05Z" stroke="currentColor" stroke-opacity="1.000000" stroke-width="1.500000"/>
	</g>
</svg>
