<svg width="18.000000" height="18.000000" viewBox="0 0 18 18" fill="none" xmlns="http://www.w3.org/2000/svg" xmlns:xlink="http://www.w3.org/1999/xlink">
	<defs/>
	<rect id="call_24px" rx="-0.500000" width="17.000000" height="17.000000" transform="translate(0.500000 0.500000)" fill="currentColor" fill-opacity="0"/>
	<path id="icon/communication/call_24px" d="M14.41 11.45L12.51 11.23C12.05 11.18 11.6 11.33 11.28 11.66L9.9 13.04C7.77 11.96 6.03 10.22 4.95 8.09L6.34 6.71C6.66 6.38 6.82 5.93 6.77 5.48L6.55 3.59C6.46 2.83 5.82 2.26 5.06 2.26L3.76 2.26C2.91 2.26 2.21 2.96 2.26 3.81C2.66 10.22 7.78 15.33 14.18 15.73C15.03 15.78 15.73 15.08 15.73 14.23L15.73 12.93C15.74 12.17 15.17 11.54 14.41 11.45Z" fill="currentColor" fill-opacity="1.000000" fill-rule="nonzero"/>
</svg>
