<svg width="20.000000" height="20.000000" viewBox="0 0 20 20" fill="none" xmlns="http://www.w3.org/2000/svg" xmlns:xlink="http://www.w3.org/1999/xlink">
	
	<defs/>
	<rect id="call_24px" rx="-0.500000" width="19.000000" height="19.000000" transform="translate(0.500000 0.500000)" fill="#FFFFFF" fill-opacity="0"/>
	<path id="icon/communication/call_24px" d="M16.01 12.72L13.9 12.48C13.39 12.42 12.89 12.59 12.53 12.95L11 14.49C8.64 13.29 6.7 11.36 5.5 8.99L7.05 7.45C7.4 7.09 7.58 6.59 7.52 6.09L7.28 3.99C7.18 3.14 6.47 2.51 5.62 2.51L4.18 2.51C3.24 2.51 2.45 3.29 2.51 4.24C2.95 11.35 8.65 17.04 15.75 17.48C16.7 17.54 17.48 16.75 17.48 15.81L17.48 14.37C17.49 13.53 16.85 12.82 16.01 12.72Z" fill="#FF84A0" fill-opacity="1.000000" fill-rule="nonzero"/>
	<path id="icon/communication/call_24px" d="M13.9 12.48C13.39 12.42 12.89 12.59 12.53 12.95L11 14.49C8.64 13.29 6.7 11.36 5.5 8.99L7.05 7.45C7.4 7.09 7.58 6.59 7.52 6.09L7.28 3.99C7.18 3.14 6.47 2.51 5.62 2.51L4.18 2.51C3.24 2.51 2.45 3.29 2.51 4.24C2.95 11.35 8.65 17.04 15.75 17.48C16.7 17.54 17.48 16.75 17.48 15.81L17.48 14.37C17.49 13.53 16.85 12.82 16.01 12.72L13.9 12.48Z" stroke="#FF84A0" stroke-opacity="1.000000" stroke-width="1.000000"/>
</svg>
