<svg width="28.568359" height="24.000000" viewBox="0 0 28.5684 24" fill="none" xmlns="http://www.w3.org/2000/svg" xmlns:xlink="http://www.w3.org/1999/xlink">
	<desc>
			Created with Pixso.
	</desc>
	<defs>
		<clipPath id="clip64_45">
			<rect id="happy" rx="-0.015761" width="23.968479" height="23.968479" transform="translate(2.281386 0.015761)" fill="white" fill-opacity="0"/>
		</clipPath>
	</defs>
	<path id="Ellipse 105" d="M24.1 9.02Q24.45 8.95 25.05 8.96Q25.61 8.98 25.97 9.04Q26.7 9.18 27.28 9.56Q27.87 9.95 28.21 10.53Q28.55 11.12 28.56 11.79Q28.57 12.46 28.26 13.08Q27.95 13.69 27.38 14.15Q26.82 14.6 26.11 14.82Q24.79 15.24 24.24 15.21L24.28 14.21Q24.49 14.22 25 14.1Q25.35 14.01 25.81 13.87Q26.34 13.7 26.75 13.37Q27.15 13.04 27.37 12.63Q27.57 12.22 27.56 11.81Q27.56 11.39 27.35 11.03Q27.13 10.65 26.73 10.39Q26.32 10.12 25.79 10.03Q25.51 9.97 25.03 9.96Q24.53 9.95 24.28 10L24.1 9.02Z" fill="#868C9E" fill-opacity="1.000000" fill-rule="evenodd"/>
	<path id="Ellipse 106" d="M3.75 9.75Q3.43 9.72 2.9 9.79Q2.4 9.85 2.08 9.95Q1.44 10.15 0.95 10.56Q0.46 10.98 0.21 11.56Q-0.04 12.14 0 12.77Q0.05 13.39 0.38 13.95Q0.7 14.49 1.25 14.87Q1.79 15.24 2.44 15.38Q3.64 15.65 4.15 15.57L3.99 14.58Q3.82 14.61 3.38 14.55Q3.06 14.5 2.66 14.41Q2.19 14.31 1.82 14.04Q1.45 13.79 1.24 13.43Q1.03 13.08 1 12.7Q0.97 12.31 1.13 11.96Q1.28 11.6 1.6 11.32Q1.93 11.04 2.37 10.91Q2.61 10.83 3.03 10.78Q3.45 10.72 3.67 10.74L3.75 9.75Z" fill="#868C9E" fill-opacity="1.000000" fill-rule="evenodd"/>
	<rect id="happy" rx="-0.015761" width="23.968479" height="23.968479" transform="translate(2.281386 0.015761)" fill="#FFFFFF" fill-opacity="0"/>
	<g clip-path="url(#clip64_45)">
		<path id="Vector" d="M21.69 4.57C20.71 3.59 19.56 2.81 18.28 2.27C17 1.74 15.63 1.46 14.25 1.46C12.87 1.46 11.5 1.73 10.22 2.25C8.94 2.78 7.78 3.56 6.8 4.53C5.82 5.51 5.05 6.67 4.52 7.95C3.99 9.23 3.72 10.6 3.73 11.98C3.73 13.37 4.01 14.74 4.54 16.01C5.07 17.29 5.85 18.45 6.84 19.42C7.81 20.4 8.97 21.18 10.25 21.72C11.52 22.25 12.89 22.53 14.27 22.53C15.66 22.54 17.03 22.27 18.3 21.74C19.58 21.21 20.75 20.43 21.72 19.46C22.7 18.48 23.48 17.32 24 16.04C24.53 14.76 24.8 13.39 24.8 12.01C24.79 10.62 24.52 9.25 23.98 7.98C23.45 6.7 22.67 5.54 21.69 4.57ZM10.89 9.75C11.11 9.75 11.33 9.81 11.51 9.93C11.7 10.06 11.84 10.23 11.93 10.44C12.01 10.65 12.03 10.87 11.99 11.09C11.95 11.31 11.84 11.51 11.68 11.67C11.53 11.82 11.33 11.93 11.11 11.97C10.89 12.02 10.66 12 10.46 11.91C10.25 11.82 10.08 11.68 9.95 11.5C9.83 11.31 9.76 11.09 9.76 10.87C9.76 10.72 9.79 10.58 9.85 10.44C9.9 10.3 9.99 10.18 10.09 10.07C10.2 9.97 10.32 9.89 10.46 9.83C10.59 9.77 10.74 9.75 10.89 9.75ZM18.75 14.72C18.18 16.61 16.39 18 14.26 18C12.14 18 10.34 16.61 9.78 14.72C9.76 14.67 9.76 14.61 9.77 14.55C9.78 14.49 9.81 14.44 9.84 14.39C9.88 14.35 9.92 14.31 9.98 14.28C10.03 14.26 10.09 14.24 10.14 14.25L18.38 14.25C18.44 14.24 18.5 14.26 18.55 14.28C18.6 14.31 18.65 14.35 18.68 14.39C18.72 14.44 18.74 14.49 18.75 14.55C18.76 14.61 18.76 14.67 18.75 14.72ZM17.64 12C17.41 12 17.2 11.93 17.01 11.81C16.83 11.68 16.68 11.51 16.6 11.3C16.51 11.1 16.49 10.87 16.53 10.65C16.58 10.43 16.68 10.23 16.84 10.08C17 9.92 17.2 9.81 17.42 9.77C17.64 9.72 17.86 9.75 18.07 9.83C18.27 9.92 18.45 10.06 18.57 10.25C18.7 10.43 18.76 10.65 18.76 10.87C18.76 11.02 18.73 11.16 18.68 11.3C18.62 11.44 18.54 11.56 18.43 11.67C18.33 11.77 18.2 11.85 18.07 11.91C17.93 11.97 17.79 12 17.64 12Z" fill="#FFFFFF" fill-opacity="0" fill-rule="nonzero"/>
		<path id="Vector" d="M18.28 2.27C17 1.74 15.63 1.46 14.25 1.46C12.87 1.46 11.5 1.73 10.22 2.25C8.94 2.78 7.78 3.56 6.8 4.53C5.82 5.51 5.05 6.67 4.52 7.95C3.99 9.23 3.72 10.6 3.73 11.98C3.73 13.37 4.01 14.74 4.54 16.01C5.07 17.29 5.85 18.45 6.84 19.42C7.81 20.4 8.97 21.18 10.25 21.72C11.52 22.25 12.89 22.53 14.27 22.53C15.66 22.54 17.03 22.27 18.3 21.74C19.58 21.21 20.75 20.43 21.72 19.46C22.7 18.48 23.48 17.32 24 16.04C24.53 14.76 24.8 13.39 24.8 12.01C24.79 10.62 24.52 9.25 23.98 7.98C23.45 6.7 22.67 5.54 21.69 4.57C20.71 3.59 19.56 2.81 18.28 2.27ZM11.51 9.93C11.7 10.06 11.84 10.23 11.93 10.44C12.01 10.65 12.03 10.87 11.99 11.09C11.95 11.31 11.84 11.51 11.68 11.67C11.53 11.82 11.33 11.93 11.11 11.97C10.89 12.02 10.66 12 10.46 11.91C10.25 11.82 10.08 11.68 9.95 11.5C9.83 11.31 9.76 11.09 9.76 10.87C9.76 10.72 9.79 10.58 9.85 10.44C9.9 10.3 9.99 10.18 10.09 10.07C10.2 9.97 10.32 9.89 10.46 9.83C10.59 9.77 10.74 9.75 10.89 9.75C11.11 9.75 11.33 9.81 11.51 9.93ZM14.26 18C12.14 18 10.34 16.61 9.78 14.72C9.76 14.67 9.76 14.61 9.77 14.55C9.78 14.49 9.81 14.44 9.84 14.39C9.88 14.35 9.92 14.31 9.98 14.28C10.03 14.26 10.09 14.24 10.14 14.25L18.38 14.25C18.44 14.24 18.5 14.26 18.55 14.28C18.6 14.31 18.65 14.35 18.68 14.39C18.72 14.44 18.74 14.49 18.75 14.55C18.76 14.61 18.76 14.67 18.75 14.72C18.18 16.61 16.39 18 14.26 18ZM17.01 11.81C16.83 11.68 16.68 11.51 16.6 11.3C16.51 11.1 16.49 10.87 16.53 10.65C16.58 10.43 16.68 10.23 16.84 10.08C17 9.92 17.2 9.81 17.42 9.77C17.64 9.72 17.86 9.75 18.07 9.83C18.27 9.92 18.45 10.06 18.57 10.25C18.7 10.43 18.76 10.65 18.76 10.87C18.76 11.02 18.73 11.16 18.68 11.3C18.62 11.44 18.54 11.56 18.43 11.67C18.33 11.77 18.2 11.85 18.07 11.91C17.93 11.97 17.79 12 17.64 12C17.41 12 17.2 11.93 17.01 11.81Z" stroke="#868C9E" stroke-opacity="1.000000" stroke-width="1.000000"/>
	</g>
</svg>
