<svg width="8.483398" height="13.008179" viewBox="0 0 8.4834 13.0082" fill="none" xmlns="http://www.w3.org/2000/svg" xmlns:xlink="http://www.w3.org/1999/xlink">
	
	<defs/>
	<path id="Polygon 1" d="M6.8 12.74L0 6.5L6.8 0.26L8.15 1.74L2.15 7.24L1.47 6.5L2.15 5.76L8.15 11.26L6.8 12.74ZM6.8 0.29L6.8 0.26C7.21 -0.12 7.83 -0.09 8.21 0.32C8.59 0.74 8.56 1.36 8.15 1.74L8.12 1.74L6.8 0.29ZM8.12 11.26L8.15 11.26C8.56 11.64 8.59 12.26 8.21 12.67C7.83 13.09 7.21 13.11 6.8 12.74L6.8 12.71L8.12 11.26Z" fill="currentColor" fill-opacity="1.000000" fill-rule="evenodd"/>
</svg>
