<svg width="12.000000" height="10.000000" viewBox="0 0 12 10" fill="none" xmlns="http://www.w3.org/2000/svg" xmlns:xlink="http://www.w3.org/1999/xlink">
	<defs/>
	<g opacity="1">
		<path d="M0.82 4.31C4.04 2.9 6.18 1.97 7.26 1.51C10.32 0.23 10.97 0 11.38 0C11.47 0 11.67 0.01 11.81 0.12C11.92 0.22 11.95 0.34 11.97 0.43C11.99 0.52 12.01 0.72 11.99 0.87C11.82 2.62 11.1 6.89 10.74 8.85C10.58 9.69 10.28 9.96 9.98 9.99C9.34 10.05 8.85 9.57 8.23 9.16C7.26 8.52 6.71 8.12 5.77 7.49C4.67 6.77 5.38 6.37 6.01 5.72C6.17 5.56 9 2.97 9.05 2.73C9.06 2.71 9.06 2.6 9 2.54C8.93 2.48 8.84 2.5 8.77 2.52C8.67 2.54 7.12 3.58 4.11 5.62C3.67 5.93 3.27 6.08 2.91 6.07C2.52 6.06 1.76 5.84 1.19 5.66C0.5 5.44 -0.05 5.32 0 4.93C0.03 4.72 0.3 4.52 0.82 4.31Z" fill="currentColor" fill-opacity="1.000000" fill-rule="evenodd"/>
	</g>
</svg>
