<svg width="28.500000" height="31.500000" viewBox="0 0 28.5 31.5" fill="none" xmlns="http://www.w3.org/2000/svg" xmlns:xlink="http://www.w3.org/1999/xlink">
	<desc>
			Created with Pixso.
	</desc>
	<defs/>
	<path d="M0.75 18.75L0.75 25.35C0.75 25.84 1.15 26.25 1.65 26.25L9.75 26.25" stroke="#868C9E" stroke-opacity="1.000000" stroke-width="1.500000" stroke-linejoin="round" stroke-linecap="round"/>
	<path d="M23.25 18.75L23.25 25.35C23.25 25.84 22.84 26.25 22.34 26.25L15.75 26.25" stroke="#868C9E" stroke-opacity="1.000000" stroke-width="1.500000" stroke-linejoin="round" stroke-linecap="round"/>
	<path d="M15.75 5.25L22.34 5.25C22.84 5.25 23.25 5.65 23.25 6.14L23.25 12.75" stroke="#868C9E" stroke-opacity="1.000000" stroke-width="1.500000" stroke-linejoin="round" stroke-linecap="round"/>
	<path d="M0.75 12.75L0.75 6.14C0.75 5.65 1.15 5.25 1.65 5.25L9.75 5.25" stroke="#868C9E" stroke-opacity="1.000000" stroke-width="1.500000" stroke-linejoin="round" stroke-linecap="round"/>
	<path d="M15.75 26.25L15.75 27.75C15.75 29.4 14.4 30.75 12.75 30.75C11.09 30.75 9.75 29.4 9.75 27.75L9.75 26.25" stroke="#868C9E" stroke-opacity="1.000000" stroke-width="1.500000" stroke-linejoin="round" stroke-linecap="round"/>
	<path d="M0.75 12.75L2.25 12.75C3.9 12.75 5.25 14.09 5.25 15.75C5.25 17.4 3.9 18.75 2.25 18.75L0.75 18.75" stroke="#868C9E" stroke-opacity="1.000000" stroke-width="1.500000" stroke-linejoin="round" stroke-linecap="round"/>
	<path d="M23.25 12.75L24.75 12.75C26.4 12.75 27.75 14.09 27.75 15.75C27.75 17.4 26.4 18.75 24.75 18.75L23.25 18.75" stroke="#868C9E" stroke-opacity="1.000000" stroke-width="1.500000" stroke-linejoin="round" stroke-linecap="round"/>
	<path d="M15.75 5.25L15.75 3.75C15.75 2.09 14.4 0.75 12.75 0.75C11.09 0.75 9.75 2.09 9.75 3.75L9.75 5.25" stroke="#868C9E" stroke-opacity="1.000000" stroke-width="1.500000" stroke-linejoin="round" stroke-linecap="round"/>
</svg>
