<svg width="11.000000" height="11.000000" viewBox="0 0 11 11" fill="none" xmlns="http://www.w3.org/2000/svg" xmlns:xlink="http://www.w3.org/1999/xlink">
	<defs/>
	<g opacity="1">
		<path d="M0.04 5.45C0.04 6.41 0.29 7.34 0.77 8.17L0 11L2.9 10.24C3.7 10.67 4.6 10.9 5.52 10.9L5.52 10.9C8.54 10.9 10.99 8.45 11 5.45C11 3.99 10.43 2.62 9.39 1.59C8.36 0.56 6.98 0 5.52 0C2.5 0 0.04 2.44 0.04 5.45L0.04 5.45ZM1.77 8.03L1.66 7.86C1.21 7.14 0.97 6.3 0.97 5.45C0.97 2.95 3.01 0.92 5.52 0.92C6.74 0.92 7.88 1.39 8.74 2.24C9.6 3.1 10.07 4.24 10.07 5.45C10.07 7.95 8.03 9.98 5.52 9.98L5.52 9.98C4.7 9.98 3.9 9.76 3.2 9.35L3.03 9.25L1.31 9.7L1.77 8.03ZM5.52 10.9L5.52 10.9L5.52 10.9Z" fill="currentColor" fill-opacity="1.000000" fill-rule="nonzero"/>
		<path d="M4.23 2.82C4.11 2.59 3.98 2.59 3.87 2.59C3.78 2.58 3.67 2.58 3.56 2.58C3.46 2.58 3.29 2.62 3.14 2.75C2.99 2.89 2.58 3.22 2.58 3.9C2.58 4.58 3.15 5.23 3.23 5.32C3.31 5.41 4.33 6.84 5.95 7.39C7.3 7.85 7.57 7.76 7.86 7.74C8.16 7.71 8.8 7.4 8.94 7.08C9.07 6.76 9.07 6.49 9.03 6.43C8.99 6.37 8.88 6.34 8.73 6.27C8.57 6.2 7.78 5.87 7.64 5.82C7.49 5.78 7.39 5.76 7.28 5.89C7.17 6.03 6.87 6.34 6.78 6.43C6.68 6.52 6.59 6.53 6.43 6.47C6.27 6.4 5.76 6.25 5.15 5.78C4.68 5.42 4.36 4.97 4.26 4.83C4.17 4.7 4.25 4.62 4.33 4.55C4.41 4.49 4.49 4.39 4.57 4.31C4.65 4.23 4.68 4.17 4.73 4.08C4.79 3.99 4.76 3.91 4.72 3.84C4.68 3.77 4.37 3.09 4.23 2.82L4.23 2.82Z" fill="currentColor" fill-opacity="1.000000" fill-rule="evenodd"/>
	</g>
</svg>
